<?xml version="1.0" encoding="UTF-8" standalone="no"?>
<svg
   xmlns:dc="http://purl.org/dc/elements/1.1/"
   xmlns:cc="http://creativecommons.org/ns#"
   xmlns:rdf="http://www.w3.org/1999/02/22-rdf-syntax-ns#"
   xmlns:svg="http://www.w3.org/2000/svg"
   xmlns="http://www.w3.org/2000/svg"
   xmlns:sodipodi="http://sodipodi.sourceforge.net/DTD/sodipodi-0.dtd"
   xmlns:inkscape="http://www.inkscape.org/namespaces/inkscape"
   version="1.1"
   viewBox="0 0 36 36"
   id="svg36"
   sodipodi:docname="xenon.svg"
   inkscape:version="0.92.4 5da689c313, 2019-01-14">
  <metadata
     id="metadata42">
    <rdf:RDF>
      <cc:Work
         rdf:about="">
        <dc:format>image/svg+xml</dc:format>
        <dc:type
           rdf:resource="http://purl.org/dc/dcmitype/StillImage" />
      </cc:Work>
    </rdf:RDF>
  </metadata>
  <defs
     id="defs40" />
  <sodipodi:namedview
     pagecolor="#ffffff"
     bordercolor="#666666"
     borderopacity="1"
     objecttolerance="10"
     gridtolerance="10"
     guidetolerance="10"
     inkscape:pageopacity="0"
     inkscape:pageshadow="2"
     inkscape:window-width="754"
     inkscape:window-height="480"
     id="namedview38"
     showgrid="false"
     inkscape:zoom="6.5555556"
     inkscape:cx="18"
     inkscape:cy="18"
     inkscape:window-x="0"
     inkscape:window-y="0"
     inkscape:window-maximized="0"
     inkscape:current-layer="svg36" />
  <path
     d="m2.6192 3.3726c-.14491-.018783-.26306-.019318-.34802.00179-.082789.020628-.15631.06969-.22065.13804-.0099.010623-.015635.029535-.025114.041232-.052475.064219-.1.13966-.13992.23485-.010471.025117-.019065.057128-.028702.084258-.032375.090692-.061071.18735-.084313.29938-.011527.055507-.019316.1189-.028702.17927-.012984.083872-.025133.16903-.034084.26174-.015944.16287-.01196.36656-.016145.55395-.00498.2375-.010735.46997.00179.74039.010236.22956.033889.47751.055611.72605.020364.22845.038886.44932.068168.6902.038807.32465.086596.65312.13992.99316.030812.19429.060006.38369.095076.58084.06952.39502.14695.78245.23141 1.1796.025387.11847.050586.23344.077138.35137.10702.47893.21955.93858.34263 1.3947.00578.02134.012129.04148.017939.06275.13672.50237.27741.97176.42695 1.4162v.0018c.10832.32189.21634.65617.32828.93401.50023 1.2429 1.0433 2.0261 1.6091 2.5134-.43561.73504-.85979 1.512-1.2737 2.3395h2.0271s-2.0283 2.0263-3.0424 5.0644c.028809-.0144.046944-.02006.075343-.03406-.18325.35938-.27965.77599-.25653 1.2621 1.1892-.59447 2.0472-.72597 2.5904-.74398-.078594.21355-.16153.42695-.22244.64-.073007.25536-.11686.49117-.13813.70633l-.00179.0018c-.11234.33987-.17397.74491-.12198 1.2316 2.9465-1.3383 4.3233-1.1473 5.9306-.3442 1.1141 3.3254 3.864 5.8119 7.3496 5.8119 3.4838 0 6.1951-2.5645 7.3083-5.8891 1.3391-1.1473 3.4057-.80312 5.8929.38185.06045-.37927.0344-.7089-.03229-1.0021.0018.0013.0035.0024.0054.0036h.0018c0-.12667-.01715-.26889-.04485-.42129-.0632-.34769-.19746-.74025-.33725-1.1204.5342.0205 1.3749.1558 2.5509.74398-.007-.47693-.08498-.8957-.21886-1.2621.02819.01389.04675.01798.07534.03227-1.0131-3.0391-3.0406-5.0626-3.0406-5.0626h2.0271c-.41482-.82951-.84234-1.6083-1.279-2.3449.56376-.48782 1.105-1.2694 1.6037-2.508.11808-.29327.23224-.64399.34622-.98599l.01794.05199c1.2168-3.616 2.1272-9.6188.87894-9.9299-.0096-.0024-.02899.00184-.03947 0-1.1997-.29807-8.7855 3.5737-10.968 6.1526-1.2022-.28602-2.7503-.43904-4.7484-.43922h-.0036c-2.0027.0001766-3.554.15373-4.7574.44101-.69171-.81844-1.9327-1.7592-3.3384-2.664-.43006-.277-.86976-.54835-1.3203-.8121-.82678-.48339-1.6502-.92851-2.4433-1.3194-.5054-.24976-.98396-.47162-1.4315-.66331-.15779-.067457-.30974-.13111-.45744-.19003-.11365-.04542-.22677-.092679-.33366-.13266-.17844-.066653-.33804-.11814-.49511-.16852-.076533-.02459-.16051-.054838-.23141-.075294-.21831-.062875-.41457-.11043-.57225-.13087z"
     fill="none"
     stroke="#000"
     stroke-width="2.5"
     id="path2" />
  <path
     d="m13.805 10.476c.60436 2.4223.16165 4.4783-2.2613 5.0813-2.4248.60304-5.7046 4.5471-8.066-1.3199-1.3694-3.3989-2.5653-10.524-1.206-10.863 1.3593-.33778 10.93 4.6793 11.533 7.1016z"
     fill="#00bbd2"
     id="path4" />
  <path
     d="m2.6192 3.3726c-.14491-.018783-.26306-.019318-.34802.0017927-1.2482.31101-.33782 6.3139.87901 9.9299l1.8603-5.1397 5.466-.93042c-2.793-1.8866-6.5158-3.6876-7.8573-3.8615z"
     fill="#4d4447"
     fill-rule="evenodd"
     id="path6" />
  <path
     d="m11.974 10.984c.88174 1.4117-1.6817 4.1864-3.0934 5.0685-1.4126.88207-2.6627-.50666-4.0541-4.0515-.60803-1.5503-1.5302-5.755-1.0131-6.0781.51618-.32217 7.278 3.6495 8.1606 5.0611z"
     fill="#e5fcff"
     id="path8" />
  <path
     d="m22.187 10.476c-.60344 2.4223-.16257 4.4783 2.2622 5.0813s5.7037 4.5471 8.066-1.3199c1.3685-3.3989 2.5644-10.524 1.205-10.863-1.3593-.33778-10.929 4.6793-11.533 7.1016z"
     fill="#00bbd2"
     id="path10" />
  <path
     d="m33.411 3.3726c.14492-.018783.26306-.019318.34802.00179 1.2482.31101.33782 6.3139-.87901 9.9299l-1.8603-5.1397-5.466-.93042c2.793-1.8866 6.5158-3.6876 7.8573-3.8615z"
     fill="#4d4447"
     fill-rule="evenodd"
     id="path12" />
  <path
     d="m24.02 10.984c-.88174 1.4117 1.6817 4.1864 3.0934 5.0685 1.4117.88207 2.6617-.50666 4.0532-4.0515.60803-1.5494 1.5302-5.7541 1.014-6.0772-.5171-.32309-7.278 3.6485-8.1606 5.0602z"
     fill="#e5fcff"
     id="path14" />
  <path
     d="m18.003 9.9744c-6.0821-2.0257-10.536 1.8119-14.19 9.1172h2.0271s-2.0271 2.0248-3.0411 5.0639c2.0271-1.0133 3.0411-1.0133 3.0411-1.0133s-1.014 2.0267-1.014 3.04c3.0411-2.0267 6.0812-2.0267 8.1083 1.0124s5.0681 0 5.0681-4.0515v-13.169z"
     fill="#00bbd2"
     id="path16" />
  <path
     d="m18.003 9.9744c6.0812-2.0257 10.536 1.8119 14.189 9.1163h-2.0262s2.0262 2.0248 3.0392 5.0639c-2.0262-1.0133-3.0392-1.0133-3.0392-1.0133s1.0131 2.0267 1.0131 3.04c-3.0411-2.0267-6.0812-2.0267-8.1083 1.0124-2.028 3.0391-5.0681 0-5.0681-4.0515l.000918-13.168z"
     fill="#00bbd2"
     id="path18" />
  <path
     d="m18.003 9.0887h-.0028c-10.41.0009179-8.8219 4.0102-7.706 10.677 1.115 6.6692 2.434 11.401 7.7088 11.401 5.273 0 6.5901-4.7316 7.7069-11.401 1.1141-6.6674 2.7012-10.676-7.7069-10.677z"
     fill="#00bbd2"
     id="path20" />
  <path
     d="m33.349 25.383c-.07715-5.2392-8.5427-3.4374-9.2646-2.7279-1.014.99497-1.0177 7.0722-6.0831 7.0722-5.0663 0-6.0803-6.0772-7.0934-7.0722-.72284-.70951-8.4812-1.2878-8.2901 2.7279 2.0271-1.0133 3.222-.71961 3.222-.71961s-1.3088.75816-1.1169 2.5554c2.9465-1.3383 4.3242-1.1473 5.9315-.3442 1.1141 3.3254 3.8631 5.8129 7.3487 5.8129 3.4838 0 6.196-2.5645 7.3092-5.8891 1.3391-1.1473 3.4057-.80314 5.8929.38183.26819-1.6825-1.0397-2.5168-1.0397-2.5168s1.1573-.29372 3.1834.71961z"
     fill="#e5fcff"
     id="path22" />
  <path
     d="m33.205 24.155c-.8303-2.4948-8.3994-3.7302-9.1214-3.0207-1.014.99497-1.0177 7.0722-6.0831 7.0722-5.0663 0-6.0803-6.0772-7.0934-7.0722-.72284-.70951-7.2762.52594-8.1083 3.0207 2.0271-1.0133 3.0411-1.0133 3.0411-1.0133s-1.014 2.0267-1.014 3.04c2.4523-1.6338 4.9037-1.9477 6.8233-.41488 1.1141 3.3254 2.8675 5.3998 6.3531 5.3998 3.4838 0 5.2353-2.0735 6.3485-5.398 1.9214-1.5356 4.3747-1.2208 6.8279.41304 0-1.0133-1.0131-3.04-1.0131-3.04s1.0131.000918 3.0392 1.0133z"
     fill="#e5fcff"
     id="path24" />
  <path
     d="m15.19 27.004c-.93776.19092 1.8746 3.6421 2.8124 3.6421.93684 0 3.7492-3.4512 2.8124-3.6421-.93776-.19092-4.687-.19092-5.6247 0z"
     fill="#7e564f"
     id="path30" />
  <path
     d="m6.2358 5.8878-3.364 2.7897"
     fill="none"
     stroke="#717c7d"
     stroke-width="1px"
     id="path32" />
  <path
     d="m7.9588 6.5442-4.5948 4.1845"
     fill="none"
     stroke="#717c7d"
     stroke-width="1px"
     id="path34" />
</svg>
