<?xml version="1.0" encoding="UTF-8" standalone="no"?>
<svg
   xmlns:dc="http://purl.org/dc/elements/1.1/"
   xmlns:cc="http://creativecommons.org/ns#"
   xmlns:rdf="http://www.w3.org/1999/02/22-rdf-syntax-ns#"
   xmlns:svg="http://www.w3.org/2000/svg"
   xmlns="http://www.w3.org/2000/svg"
   xmlns:sodipodi="http://sodipodi.sourceforge.net/DTD/sodipodi-0.dtd"
   xmlns:inkscape="http://www.inkscape.org/namespaces/inkscape"
   viewBox="0 0 36 36"
   version="1.1"
   id="svg22"
   sodipodi:docname="fuwux.svg"
   inkscape:version="0.92.4 5da689c313, 2019-01-14"
   inkscape:export-filename="/home/ztepps/Pictures/foxes/fuwux_flower_blush.png"
   inkscape:export-xdpi="341.32999"
   inkscape:export-ydpi="341.32999">
  <metadata
     id="metadata28">
    <rdf:RDF>
      <cc:Work
         rdf:about="">
        <dc:format>image/svg+xml</dc:format>
        <dc:type
           rdf:resource="http://purl.org/dc/dcmitype/StillImage" />
        <dc:title></dc:title>
      </cc:Work>
    </rdf:RDF>
  </metadata>
  <defs
     id="defs26" />
  <sodipodi:namedview
     pagecolor="#ffffff"
     bordercolor="#666666"
     borderopacity="1"
     objecttolerance="10"
     gridtolerance="10"
     guidetolerance="10"
     inkscape:pageopacity="0"
     inkscape:pageshadow="2"
     inkscape:window-width="1920"
     inkscape:window-height="986"
     id="namedview24"
     showgrid="false"
     inkscape:zoom="16"
     inkscape:cx="24.070443"
     inkscape:cy="14.8837"
     inkscape:window-x="1924"
     inkscape:window-y="0"
     inkscape:window-maximized="1"
     inkscape:current-layer="svg22"
     showguides="true"
     inkscape:guide-bbox="true" />
  <g
     id="g855"
     transform="matrix(0.30201412,0,0,0.30201412,20.030048,3.4210457)">
    <g
       id="g860"
       transform="matrix(1.037699,-0.57848049,0.57848049,1.037699,-5.9319124,5.8746819)">
      <path
         style="fill:#ffffff"
         inkscape:connector-curvature="0"
         d="m 15.632,34.661 c -0.799,-0.597 -1.498,-1.484 -2.035,-2.592 l -0.228,-0.47 -0.46,0.249 c -0.975,0.528 -1.913,0.858 -2.744,0.969 L 9.963,29.061 6.327,30.029 C 6.17,29.175 6.202,28.142 6.423,27.007 L 6.526,26.482 5.994,26.416 C 4.752,26.262 3.688,25.891 2.89,25.336 L 4.411,22.419 1.423,20.896 C 1.742,19.952 2.371,19.014 3.257,18.161 L 3.634,17.798 3.255,17.438 C 2.452,16.674 1.847,15.884 1.485,15.127 L 4.995,13.774 2.95,10.615 C 3.69,10.213 4.643,9.929 5.739,9.783 L 6.258,9.715 6.167,9.201 C 5.952,7.99 5.995,6.863 6.291,5.913 l 3.308,0.523 0.524,-3.308 c 0.988,0.013 2.08,0.326 3.164,0.907 L 13.749,4.283 13.975,3.81 C 14.454,2.807 15.019,1.986 15.628,1.406 L 18,4.326 20.372,1.406 c 0.609,0.58 1.175,1.401 1.653,2.404 l 0.226,0.473 0.462,-0.247 C 23.798,3.455 24.891,3.142 25.877,3.13 L 26.4,6.438 29.71,5.913 c 0.296,0.951 0.34,2.078 0.124,3.288 l -0.092,0.515 0.518,0.069 c 1.095,0.145 2.048,0.43 2.788,0.832 l -2.046,3.156 3.511,1.355 c -0.361,0.757 -0.966,1.547 -1.77,2.311 l -0.379,0.36 0.377,0.363 c 0.888,0.854 1.516,1.793 1.835,2.736 l -2.984,1.52 1.521,2.984 c -0.812,0.574 -1.871,0.964 -3.094,1.134 l -0.518,0.072 0.096,0.514 c 0.201,1.089 0.226,2.083 0.073,2.909 l -3.634,-0.97 -0.204,3.757 c -0.83,-0.11 -1.768,-0.44 -2.742,-0.968 l -0.459,-0.249 -0.228,0.47 c -0.539,1.107 -1.237,1.994 -2.036,2.591 L 18,32.293 Z"
         id="path838" />
      <path
         style="fill:#ea596e"
         inkscape:connector-curvature="0"
         d="M 7.092,10.678 C 6.562,9.189 6.394,7.708 6.66,6.478 l 2.368,0.375 0.987,0.156 0.157,-0.988 0.375,-2.368 C 11.808,3.78 13.16,4.396 14.409,5.359 14.527,5.022 14.653,4.696 14.791,4.392 13.24,3.257 11.568,2.629 10.061,2.629 9.938,2.629 9.816,2.633 9.695,2.642 L 9.184,5.865 5.96,5.354 C 5.36,6.841 5.395,8.769 6.045,10.747 6.38,10.71 6.729,10.686 7.092,10.678 Z M 21.593,5.359 c 1.248,-0.962 2.6,-1.578 3.86,-1.705 l 0.376,2.368 0.156,0.988 0.987,-0.157 2.369,-0.376 c 0.266,1.23 0.098,2.71 -0.432,4.2 0.361,0.009 0.711,0.032 1.046,0.07 C 30.606,8.769 30.64,6.841 30.04,5.353 L 26.815,5.865 26.304,2.641 c -0.12,-0.008 -0.242,-0.012 -0.365,-0.012 -1.507,0 -3.179,0.628 -4.73,1.762 0.14,0.306 0.266,0.631 0.384,0.968 z M 7.368,27 h 0.035 c 0.067,0 0.157,-0.604 0.26,-0.947 -0.098,0.004 -0.197,0.046 -0.294,0.046 -1.496,0 -2.826,-0.303 -3.83,-0.89 L 4.628,23.081 5.082,22.194 4.191,21.742 2.055,20.654 C 2.563,19.503 3.57,18.404 4.873,17.511 4.586,17.292 4.312,17.07 4.063,16.842 2.376,18.059 1.217,19.597 0.828,21.152 l 2.908,1.483 -1.482,2.843 C 3.475,26.501 5.303,27 7.368,27 Z m 27.806,-5.846 c -0.39,-1.555 -1.548,-3.093 -3.234,-4.311 -0.25,0.228 -0.523,0.451 -0.81,0.669 1.304,0.893 2.31,1.992 2.817,3.145 l -2.136,1.088 -0.891,0.453 0.454,0.892 1.089,2.137 c -1.004,0.587 -2.332,0.904 -3.828,0.904 -0.099,0 -0.199,-0.01 -0.299,-0.013 0.103,0.344 0.192,0.683 0.26,1.011 l 0.039,0.002 c 2.066,0 3.892,-0.563 5.112,-1.587 l -1.482,-2.908 z m -12.653,9.182 c -0.447,1.517 -1.181,2.812 -2.119,3.651 L 18.707,32.293 18,31.586 l -0.707,0.707 -1.695,1.694 c -0.938,-0.839 -1.673,-2.136 -2.12,-3.652 -0.296,0.206 -0.593,0.397 -0.886,0.563 0.636,1.98 1.741,3.559 3.1,4.409 L 18,33 l 2.308,2.308 c 1.358,-0.851 2.464,-2.428 3.101,-4.408 -0.295,-0.168 -0.591,-0.359 -0.888,-0.564 z"
         id="path840" />
      <path
         style="fill:#ea596e"
         inkscape:connector-curvature="0"
         d="m 20.118,5.683 c 0.426,1.146 0.748,2.596 0.841,4.284 l 0.2,3.683 3.564,-0.946 c 1.32,-0.351 2.655,-0.536 3.86,-0.536 0.16,0 0.318,0.003 0.474,0.01 l -1.827,2.819 3.139,1.211 c -0.958,0.759 -2.237,1.514 -3.814,2.123 l -3.441,1.328 2.001,3.099 c 0.918,1.42 1.509,2.782 1.838,3.96 L 23.709,25.853 23.527,29.21 C 22.508,28.533 21.395,27.55 20.329,26.237 L 18,23.374 15.672,26.236 c -1.066,1.312 -2.179,2.295 -3.198,2.972 l -0.18,-3.354 -3.248,0.864 c 0.329,-1.178 0.921,-2.54 1.839,-3.961 L 12.889,19.658 9.447,18.33 C 7.87,17.721 6.591,16.967 5.633,16.208 L 8.768,15 6.941,12.177 c 0.155,-0.006 0.313,-0.01 0.473,-0.01 1.206,0 2.541,0.185 3.861,0.536 l 3.564,0.947 0.202,-3.683 c 0.092,-1.688 0.415,-3.138 0.84,-4.284 L 18,8.292 20.118,5.683 M 20.308,0.692 18,3.533 15.692,0.692 C 13.703,2.224 12.271,5.684 12.046,9.804 10.429,9.374 8.854,9.167 7.414,9.167 c -2.11,0 -3.929,0.445 -5.161,1.289 l 1.989,3.073 -3.415,1.316 c 0.842,2.366 3.69,4.797 7.54,6.283 -2.241,3.465 -3.116,7.106 -2.407,9.516 l 3.537,-0.941 0.196,3.654 c 2.512,-0.07 5.703,-2.027 8.307,-5.228 2.603,3.201 5.796,5.158 8.306,5.228 l 0.198,-3.655 3.535,0.943 c 0.71,-2.411 -0.165,-6.05 -2.404,-9.517 3.849,-1.485 6.696,-3.918 7.538,-6.283 l -3.415,-1.318 1.99,-3.07 c -1.233,-0.844 -3.053,-1.29 -5.164,-1.29 -1.438,0 -3.013,0.207 -4.63,0.636 C 23.729,5.684 22.297,2.224 20.308,0.692 Z"
         id="path842" />
    </g>
  </g>
</svg>
