<?xml version="1.0" encoding="UTF-8" standalone="no"?>
<svg
   xmlns:dc="http://purl.org/dc/elements/1.1/"
   xmlns:cc="http://creativecommons.org/ns#"
   xmlns:rdf="http://www.w3.org/1999/02/22-rdf-syntax-ns#"
   xmlns:svg="http://www.w3.org/2000/svg"
   xmlns="http://www.w3.org/2000/svg"
   xmlns:sodipodi="http://sodipodi.sourceforge.net/DTD/sodipodi-0.dtd"
   xmlns:inkscape="http://www.inkscape.org/namespaces/inkscape"
   viewBox="0 0 36 36"
   version="1.1"
   id="svg22"
   sodipodi:docname="pat_hand.svg"
   inkscape:version="0.92.4 5da689c313, 2019-01-14"
   inkscape:export-filename="/home/ztepps/Pictures/emoji/foxpat.png"
   inkscape:export-xdpi="341.32999"
   inkscape:export-ydpi="341.32999">
  <metadata
     id="metadata28">
    <rdf:RDF>
      <cc:Work
         rdf:about="">
        <dc:format>image/svg+xml</dc:format>
        <dc:type
           rdf:resource="http://purl.org/dc/dcmitype/StillImage" />
        <dc:title></dc:title>
      </cc:Work>
    </rdf:RDF>
  </metadata>
  <defs
     id="defs26">
    <inkscape:path-effect
       effect="spiro"
       id="path-effect1564"
       is_visible="true" />
  </defs>
  <sodipodi:namedview
     pagecolor="#ffffff"
     bordercolor="#666666"
     borderopacity="1"
     objecttolerance="10"
     gridtolerance="10"
     guidetolerance="10"
     inkscape:pageopacity="0"
     inkscape:pageshadow="2"
     inkscape:window-width="1920"
     inkscape:window-height="986"
     id="namedview24"
     showgrid="false"
     inkscape:zoom="18.541911"
     inkscape:cx="15.785705"
     inkscape:cy="17.623042"
     inkscape:window-x="1924"
     inkscape:window-y="0"
     inkscape:window-maximized="1"
     inkscape:current-layer="svg22" />
  <path
     style="fill:#f9bf19;fill-opacity:1;stroke:#000000;stroke-width:1.89999998;stroke-linecap:butt;stroke-linejoin:miter;stroke-miterlimit:4;stroke-dasharray:none;stroke-opacity:1"
     d="m -46.525423,-5.9491526 c -6.118347,-1.2027816 -12.312756,-2.0185062 -18.533899,-2.4406779 -4.087436,-0.2773767 -8.194459,-0.384807 -12.279661,-0.076271 -1.865487,0.1408914 -3.73861,0.3714763 -5.517037,0.9520714 -1.778427,0.5805951 -3.469231,1.5317144 -4.703302,2.9377591 -0.960467,1.0943122 -1.618071,2.43479 -2.009361,3.83725486 -0.39129,1.40246484 -0.523245,2.86781894 -0.507588,4.32376204 0.0059,0.5513343 0.03349,1.1074336 0.174355,1.6405025 0.140863,0.5330689 0.403103,1.0462661 0.81717,1.410345 0.471617,0.4146818 1.109712,0.6069837 1.737459,0.6247805 0.627748,0.017797 1.249652,-0.1267812 1.847287,-0.3196957 2.830559,-0.9136943 5.23044,-2.9007237 8.084746,-3.7372882 0.174066,-0.051017 0.352549,-0.098002 0.533854,-0.092488 0.09065,0.00276 0.181384,0.018899 0.265382,0.053102 0.084,0.034202 0.161142,0.086873 0.219255,0.156503 0.06448,0.077259 0.10408,0.1738149 0.119236,0.2732982 0.01516,0.099483 0.0065,0.2018052 -0.01845,0.2992951 -0.04989,0.1949796 -0.162348,0.3675462 -0.280291,0.5306288 -0.597397,0.8260353 -1.387983,1.5223159 -1.830509,2.440678 -0.23929,0.4965923 -0.368128,1.057129 -0.294816,1.6034704 0.03666,0.2731708 0.123803,0.5404146 0.263619,0.7779376 0.139817,0.237523 0.332831,0.4447807 0.565096,0.5931682 0.437133,0.2792721 0.987983,0.3350201 1.500757,0.2566581 0.512774,-0.07836 0.997516,-0.2800114 1.473819,-0.4854716 4.008417,-1.7290908 7.846484,-3.852821 11.440678,-6.3305085 l 16.932204,0.1525424 z"
     id="path1562"
     inkscape:connector-curvature="0"
     inkscape:path-effect="#path-effect1564"
     inkscape:original-d="m -46.525423,-5.9491526 c 0,0 -12.990526,-1.780661 -18.533899,-2.4406779 -5.543373,-0.660017 -8.185441,-0.051847 -12.279661,-0.076271 -4.09422,-0.024424 -6.812559,2.5922203 -10.220339,3.8898305 -3.40778,1.2976102 -1.676966,5.43967796 -2.516949,8.1610169 -0.839983,2.721339 0.662017,2.0328984 0.991525,3.0508475 0.329509,1.0179492 2.390831,0.2023898 3.584746,0.3050848 1.193915,0.1026949 5.406824,-2.4584787 8.084746,-3.7372882 0.347879,-0.1661252 0.688983,0.1669656 1.018491,0.1171166 0.329509,-0.049847 -0.12763,0.644595 -0.17951,1.1032221 -0.05185,0.4586271 -1.219339,1.6261186 -1.830509,2.440678 -0.611169,0.8145593 0.356933,1.9820508 0.533899,2.9745762 0.176966,0.9925251 1.98405,-0.1535423 2.974576,-0.2288135 0.990525,-0.075271 11.440678,-6.3305085 11.440678,-6.3305085 l 16.932204,0.1525424 z"
     transform="matrix(0.79034734,0,0,0.79034734,71.981882,17.41656)"
     sodipodi:nodetypes="csssssssccsssccc" />
</svg>
